<svg xmlns="http://www.w3.org/2000/svg" version="1.1" xmlns:xlink="http://www.w3.org/1999/xlink" xmlns:svgjs="http://svgjs.dev/svgjs" width="1500" height="1500" viewBox="0 0 1500 1500"><rect width="1500" height="1500" fill="#000000"></rect><g transform="matrix(0.6666666666666666,0,0,0.6666666666666666,249.39393939393938,553.9484981315072)"><svg viewBox="0 0 396 156" data-background-color="#ffffff" preserveAspectRatio="xMidYMid meet" height="590" width="1500" xmlns="http://www.w3.org/2000/svg" xmlns:xlink="http://www.w3.org/1999/xlink"><g id="tight-bounds" transform="matrix(1,0,0,1,0.2400000000000091,-0.2439806148689172)"><svg viewBox="0 0 395.52 156.48796122973783" height="156.48796122973783" width="395.52"><g><svg viewBox="0 0 657.1444805842223 260" height="156.48796122973783" width="395.52"><g><rect width="8.335775089029005" height="200.99999999999997" x="281.968389227854" y="29.500000000000014" fill="#ffffff" opacity="1" stroke-width="0" stroke="transparent" fill-opacity="1" class="rect-qz-0" data-fill-palette-color="primary" rx="1%" id="qz-0" data-palette-color="#30017e"></rect></g><g transform="matrix(1,0,0,1,312.1255650735035,30)"><svg viewBox="0 0 345.0189155107188 200" height="200" width="345.0189155107188"><g id="textblocktransform"><svg viewBox="0 0 345.0189155107188 200" height="200" width="345.0189155107188" id="textblock"><g><svg viewBox="0 0 345.0189155107188 200" height="200" width="345.0189155107188"><g transform="matrix(1,0,0,1,0,0)"><svg width="345.0189155107188" viewBox="2.900000000000002 -33.7 136.8 73.80000000000001" height="200" data-palette-color="#30017e"><svg></svg><svg></svg><g class="wordmark-text-0" data-fill-palette-color="primary" id="text-0"><path d="M14.25 0v0h-10.6v-33.7h10.5c5 0 9.1 1.55 12.3 4.65 3.2 3.1 4.8 7.05 4.8 11.85v0c0 5-1.507 9.117-4.52 12.35-3.02 3.233-7.18 4.85-12.48 4.85zM14.05-29.3v0h-5.15v24.95h5.3c3.833 0 6.75-1.2 8.75-3.6 2-2.4 3-5.483 3-9.25v0c0-3.467-1.083-6.35-3.25-8.65-2.167-2.3-5.05-3.45-8.65-3.45zM54.55-9v0c0 2.7-0.967 4.923-2.9 6.67-1.933 1.753-4.65 2.63-8.15 2.63v0c-3.3 0-6.083-0.567-8.35-1.7v0-4.8c2.467 1.333 5.167 2 8.1 2v0c1.967 0 3.51-0.493 4.63-1.48 1.113-0.98 1.67-2.237 1.67-3.77v0c0-1.6-0.617-2.833-1.85-3.7-1.233-0.867-3.083-1.3-5.55-1.3v0h-2v-4.2h2c1.833 0 3.377-0.46 4.63-1.38 1.247-0.913 1.87-2.17 1.87-3.77 0-1.6-0.507-2.8-1.52-3.6-1.02-0.8-2.413-1.2-4.18-1.2v0c-2.267 0-4.517 0.7-6.75 2.1v0-4.75c2.067-1.2 4.367-1.8 6.9-1.8v0c3.333 0 5.94 0.823 7.82 2.47 1.887 1.653 2.83 3.73 2.83 6.23v0c0 1.8-0.443 3.373-1.33 4.72-0.88 1.353-2.187 2.38-3.92 3.08v0c1.9 0.467 3.383 1.35 4.45 2.65 1.067 1.3 1.6 2.933 1.6 4.9zM80-4.3v4.3h-19.45v-33.7h19.2v4.3h-14.05v10.4h12.45v4.3h-12.45v10.4z" fill="#ffffff" fill-rule="nonzero" stroke="none" stroke-width="1" stroke-linecap="butt" stroke-linejoin="miter" stroke-miterlimit="10" stroke-dasharray="" stroke-dashoffset="0" font-family="none" font-weight="none" font-size="none" text-anchor="none" style="mix-blend-mode: normal" data-fill-palette-color="primary" opacity="1"></path><path transform="translate(0,39.65)" d="M23.6-9.2v0c0 2.967-1.05 5.3-3.15 7-2.1 1.7-4.817 2.55-8.15 2.55v0c-3.7 0-6.767-0.717-9.2-2.15v0-5.35c2.633 1.967 5.683 2.95 9.15 2.95v0c1.833 0 3.283-0.427 4.35-1.28 1.067-0.847 1.6-2.02 1.6-3.52v0c0-0.9-0.317-1.727-0.95-2.48-0.633-0.747-1.317-1.313-2.05-1.7-0.733-0.38-1.833-0.903-3.3-1.57v0c-0.867-0.4-1.473-0.683-1.82-0.85-0.353-0.167-0.93-0.467-1.73-0.9-0.8-0.433-1.39-0.8-1.77-1.1-0.387-0.3-0.863-0.717-1.43-1.25-0.567-0.533-0.973-1.067-1.22-1.6-0.253-0.533-0.487-1.16-0.7-1.88-0.22-0.713-0.33-1.487-0.33-2.32v0c0-2.867 1.043-5.133 3.13-6.8 2.08-1.667 4.77-2.5 8.07-2.5v0c3.033 0 5.617 0.533 7.75 1.6v0 5.1c-2.233-1.4-4.767-2.1-7.6-2.1v0c-1.833 0-3.273 0.407-4.32 1.22-1.053 0.82-1.58 1.897-1.58 3.23 0 1.333 0.517 2.4 1.55 3.2 1.033 0.8 2.617 1.667 4.75 2.6v0c1.4 0.6 2.493 1.117 3.28 1.55 0.78 0.433 1.68 1.04 2.7 1.82 1.013 0.787 1.763 1.72 2.25 2.8 0.48 1.087 0.72 2.33 0.72 3.73zM42.8-5.05v4.4c-1.1 0.6-2.45 0.9-4.05 0.9v0c-5.233 0-7.85-2.65-7.85-7.95v0-13.85h-3.95v-3.8h3.95v-6.2h4.95v6.2h6.65v3.8h-6.65v13.95c0 2.433 1.167 3.65 3.5 3.65v0c1.367 0 2.517-0.367 3.45-1.1zM68.85-25.35v25.35h-4.9v-4.35c-1.333 3.1-3.967 4.65-7.9 4.65v0c-2.5 0-4.483-0.743-5.95-2.23-1.467-1.48-2.2-3.52-2.2-6.12v0-17.3h4.95v16.1c0 1.733 0.427 3.057 1.28 3.97 0.847 0.92 2.02 1.38 3.52 1.38v0c1.9 0 3.427-0.667 4.58-2 1.147-1.333 1.72-3.217 1.72-5.65v0-13.8zM79.4-12.45v0c0 2.533 0.623 4.583 1.87 6.15 1.253 1.567 2.83 2.35 4.73 2.35v0c1.933 0 3.567-0.733 4.9-2.2 1.333-1.467 2-3.7 2-6.7v0c0-2.9-0.69-5.05-2.07-6.45-1.387-1.4-2.947-2.1-4.68-2.1v0c-1.967 0-3.583 0.777-4.85 2.33-1.267 1.547-1.9 3.753-1.9 6.62zM97.85-35.35v35.35h-4.95v-3.85c-1.767 2.8-4.35 4.2-7.75 4.2v0c-3.333 0-5.967-1.26-7.9-3.78-1.933-2.513-2.9-5.553-2.9-9.12v0c0-3.967 1.017-7.15 3.05-9.55 2.033-2.4 4.65-3.6 7.85-3.6v0c3.3 0 5.85 1.4 7.65 4.2v0-13.85zM109.9-25.35v25.35h-4.95v-25.35zM110.5-33.1v0c0 0.833-0.3 1.55-0.9 2.15-0.6 0.6-1.333 0.9-2.2 0.9-0.867 0-1.593-0.293-2.18-0.88-0.58-0.58-0.87-1.303-0.87-2.17 0-0.867 0.29-1.6 0.87-2.2 0.587-0.6 1.313-0.9 2.18-0.9 0.867 0 1.6 0.3 2.2 0.9 0.6 0.6 0.9 1.333 0.9 2.2zM136.55-22.03c2.1 2.453 3.15 5.58 3.15 9.38 0 3.8-1.077 6.933-3.23 9.4-2.147 2.467-5.103 3.7-8.87 3.7v0c-3.733 0-6.667-1.217-8.8-3.65-2.133-2.433-3.2-5.517-3.2-9.25v0c0-3.8 1.1-6.96 3.3-9.48 2.2-2.513 5.1-3.77 8.7-3.77v0c3.867 0 6.85 1.223 8.95 3.67zM120.7-12.6v0c0 2.5 0.617 4.607 1.85 6.32 1.233 1.72 2.917 2.58 5.05 2.58v0c2.267 0 3.993-0.833 5.18-2.5 1.18-1.667 1.77-3.783 1.77-6.35v0c0-2.633-0.567-4.793-1.7-6.48-1.133-1.68-2.9-2.52-5.3-2.52v0c-2.167 0-3.85 0.857-5.05 2.57-1.2 1.72-1.8 3.847-1.8 6.38z" fill="#ffffff" fill-rule="nonzero" stroke="none" stroke-width="1" stroke-linecap="butt" stroke-linejoin="miter" stroke-miterlimit="10" stroke-dasharray="" stroke-dashoffset="0" font-family="none" font-weight="none" font-size="none" text-anchor="none" style="mix-blend-mode: normal" data-fill-palette-color="primary" opacity="1"></path></g></svg></g></svg></g></svg></g></svg></g><g><svg viewBox="0 0 260.14698847123356 260" height="260" width="260.14698847123356"><g><svg xmlns="http://www.w3.org/2000/svg" xmlns:xlink="http://www.w3.org/1999/xlink" version="1.1" x="0" y="0" viewBox="22.375000000000004 22.499999999999982 55.20018925757495 55.16900000000001" enable-background="new 0 0 100 100" xml:space="preserve" height="260" width="260.14698847123356" class="icon-icon-0" data-fill-palette-color="accent" id="icon-0"><path d="M28.849 77.669c-3.569 0-6.473-2.903-6.473-6.473 0-1.729 0.673-3.354 1.896-4.577l14.634-14.634-3.728-3.726c-0.032-0.025-0.062-0.052-0.092-0.081-0.029-0.029-0.056-0.06-0.081-0.091l-3.982-3.979c-0.026-0.021-0.052-0.044-0.077-0.069-0.024-0.024-0.047-0.05-0.069-0.076l-4.018-4.015c-0.018-0.015-0.035-0.031-0.052-0.048-0.017-0.017-0.033-0.034-0.048-0.051l-4.091-4.087c-0.188-0.188-0.293-0.442-0.293-0.708 0-0.265 0.105-0.52 0.293-0.707l11.553-11.554c0.375-0.375 1.05-0.375 1.425 0l16.231 16.219 9.826-9.826c0.001-0.001 0-0.004 0.002-0.002 0.003-0.001 0.003-0.002 0.003-0.003 0.001 0 0.001 0 0.001 0 0.064-0.064 0.137-0.117 0.212-0.16l10.455-6.173c0.035-0.021 0.072-0.039 0.109-0.056 0.445-0.194 0.919-0.292 1.407-0.292 1.945 0 3.527 1.582 3.527 3.527 0 0.476-0.094 0.938-0.278 1.374-0.022 0.052-0.048 0.101-0.077 0.146L71.031 38.11c-0.045 0.083-0.103 0.161-0.173 0.23-0.077 0.077-0.163 0.139-0.255 0.186-0.679 0.749-2.197 2.267-5.594 5.664l-3.974 3.973 15.847 15.833c0.274 0.089 0.503 0.294 0.617 0.569 0.155 0.374 0.069 0.804-0.217 1.09L65.73 77.208c-0.188 0.188-0.441 0.293-0.707 0.293h-0.168c-0.265 0-0.52-0.105-0.707-0.293L48.063 61.136 33.426 75.773C32.202 76.996 30.577 77.669 28.849 77.669zM25.058 68.819c-0.444 0.705-0.682 1.522-0.682 2.377 0 2.466 2.006 4.473 4.473 4.473 0.854 0 1.671-0.237 2.377-0.682L25.058 68.819zM62.234 72.469l2.705 2.702 10.145-10.146L59.622 49.577 49.478 59.722l3.061 3.059 3.395-3.395c0.391-0.391 1.023-0.391 1.414 0s0.391 1.023 0 1.414l-3.394 3.394 2.726 2.724 3.393-3.393c0.391-0.391 1.023-0.391 1.414 0s0.391 1.023 0 1.414l-3.393 3.393 2.727 2.724 3.391-3.391c0.391-0.391 1.023-0.391 1.414 0s0.391 1.023 0 1.414L62.234 72.469zM26.393 67.326l6.326 6.326c4.695-4.695 31.327-31.327 36.019-36.019l-6.326-6.326L26.393 67.326zM37.213 47.466l3.107 3.104 10.144-10.144L34.935 24.909 24.791 35.053l2.727 2.725 3.325-3.325c0.391-0.391 1.023-0.391 1.414 0s0.391 1.023 0 1.414l-3.324 3.324 2.726 2.724 3.323-3.323c0.391-0.391 1.023-0.391 1.414 0s0.391 1.023 0 1.414l-3.322 3.323 2.726 2.724 3.322-3.321c0.391-0.391 1.023-0.391 1.414 0s0.391 1.023 0 1.414L37.213 47.466zM64.03 30.099L69.933 36l2.984-5.224-3.725-3.726L64.03 30.099zM70.971 26.001l2.975 2.975 1.377-2.41c0.065-0.172 0.099-0.353 0.099-0.539 0-0.842-0.686-1.527-1.527-1.527-0.194 0-0.382 0.035-0.559 0.105L70.971 26.001z" fill="#ffffff" data-fill-palette-color="accent"></path></svg></g></svg></g></svg></g><defs></defs></svg><rect width="395.52" height="156.48796122973783" fill="none" stroke="none" visibility="hidden"></rect></g></svg></g></svg>